<?xml version="1.0" encoding="UTF-8"?><svg id="_图层_1" xmlns="http://www.w3.org/2000/svg" viewBox="0 0 441.7 86.8"><polygon points="81.95 25.66 78.98 25.87 72.37 9.88 72.48 1.64 81.95 25.66" style="fill:#086bb0; stroke-width:0px;"/><polygon points="80.76 25.66 77.79 25.87 71.18 9.88 71.29 1.64 80.76 25.66" style="fill:#2a2f89; stroke-width:0px;"/><path d="m24.39,57.58c-1.39,0-2.72.26-3.93.73-.07-.07-.15-.14-.22-.21.24-.94.37-1.94.37-2.97,0-2.37-9.55-.06-13.3-2.67-2.14-1.48.87-8.84.13-8.8-1.97.11-3.89,8.16-3.91,7.75-.07-1.27-1.43-2.13-1.43,3.71,0,3.16,1.22,6,3.14,7.94-.21.84-.32,1.72-.32,2.64,0,5.56,4.14,10.07,9.25,10.07,1.27,0,2.47-.28,3.57-.78,1.8,1.43,4.11,2.29,6.64,2.29,5.73,0,10.37-4.41,10.37-9.85s-4.64-9.85-10.37-9.85Z" style="fill:#e2961c; stroke-width:0px;"/><path d="m23.23,53.37c-1.74-1.28-3.97-2.04-6.39-2.04-5.61,0-10.15,4.1-10.15,9.15,0,3.32,1.96,6.22,4.89,7.83,1.62,3.64,5.13,6.16,9.19,6.16,5.61,0,10.15-4.79,10.15-10.71,0-5.02-3.27-9.23-7.69-10.39Z" style="fill:#e55827; stroke-width:0px;"/><path d="m51.16,86.03c-2.38,1.27-6.3,1.05-8.44-1.22-.15-.16-.23-.39-.19-.61l1.06-6.78c.06-.37.38-.63.76-.61l6.79.39c.39.02.69.36.68.75l-.28,7.47c0,.25-.15.49-.38.61Z" style="fill:#f5d83d; stroke-width:0px;"/><path d="m71.73,84.85c-2.03,1.78-5.9,2.46-8.5.74-.19-.12-.31-.33-.33-.55l-.52-6.84c-.03-.37.23-.7.6-.77l6.7-1.17c.39-.07.76.19.83.57l1.44,7.34c.05.25-.03.51-.23.68Z" style="fill:#f5d83d; stroke-width:0px;"/><path d="m93.02,48.09c1.42,23.62-11.75,32.07-37.72,32.17-27.54.1-40-9.14-40-32.78,0-21.17,17.16-38.33,38.33-38.33,12.91,0,24.26,6.63,31.43,16.59.39.54-1.46-.03-1.1.53.18.28,3.6,1.38,3.78,1.66.21.34-.61.96-.41,1.31,3.26,5.62,5.29,12.06,5.7,18.85Z" style="fill:#f5d83d; stroke-width:0px;"/><path d="m49.15,58.39l-2.25-20.98,6.86-9.86c14.25,6.07,26.17,6.99,35.2,1.56l2.89,4.82,2.04,23.15-2.46,7.02-6.27,3-26.31,1.23-.29-1.32-6.19-.02-1.26-8.41-1.96-.19Z" style="fill:#b3b3b3; stroke-width:0px;"/><path d="m54.51,57.13l-1.99-18.07,6.12-8.79c13.73,5.19,20.99,5.65,30.64,1.25l2.3,4.07,1.77,19.99-1.98,6.27-5.25,2.57-23.09,1.07-1.71-7.88-6.81-.48Z" style="fill:#e6e6e5; stroke-width:0px;"/><path d="m57.59,55.9l-1.85-15.83,5.47-7.39c10.47,3.87,19.83,4.75,27.41.88l2.32,3.73,1.21,17.69-1.85,5.34-4.42,2.09-20.74.88-1.69-6.99-5.86-.4Z" style="fill:#2a2f89; stroke-width:0px;"/><rect x="69.66" y="41.01" width="2.41" height="6.64" style="fill:#30a1d3; stroke-width:0px;"/><rect x="49.56" y="41.03" width="2.27" height="13.42" transform="translate(-4.71 5.55) rotate(-5.99)" style="fill:#71c7d5; stroke-width:0px;"/><rect x="83.36" y="41.01" width="2.41" height="6.64" style="fill:#30a1d3; stroke-width:0px;"/><polygon points="77.57 56.62 77.57 51.66 83.36 53.77 77.57 56.62" style="fill:#30a1d3; stroke-width:0px;"/><polygon points="63.03 65.49 58.85 68.33 56.82 59.16 61.31 57.62 63.03 65.49" style="fill:#a5a5a5; stroke-width:0px;"/><polygon points="58.56 67.01 52.36 66.99 51.11 58.59 56.82 59.16 58.56 67.01" style="fill:#7f7f80; stroke-width:0px;"/><polygon points="56.82 59.16 49.15 58.39 54.51 57.13 61.31 57.62 56.82 59.16" style="fill:#999; stroke-width:0px;"/><polygon points="52.52 39.07 46.9 37.42 53.76 27.55 58.64 30.27 52.52 39.07" style="fill:#ccc; stroke-width:0px;"/><path d="m48.34,63.72l-9.32.21c.33-4.81-.34-9.75-1.85-14.86l8.08-2.06c2.93,4.95,3.72,10.59,3.09,16.7Z" style="fill:#b3b3b3; stroke-width:0px;"/><circle cx="39.94" cy="45.19" r="5.9" style="fill:#7f7f80; stroke-width:0px;"/><circle cx="39.22" cy="46.04" r="4.2" style="fill:#4d4d4d; stroke-width:0px;"/><rect x="38.5" y="42.3" width="1.43" height="7.48" transform="translate(-20.61 37.18) rotate(-41.15)" style="fill:#ccc; stroke-width:0px;"/><path d="m22.36,68.74l-10.33-11.16c-2.45-.88-4.9-1.61-7.33-2.19l10.4,11.57c2.4.52,4.83,1.12,7.26,1.78Zm-12.53-10.71l7.93,8.65-2.09-.64-8.35-8.65,2.51.64Z" style="fill:#e6e6e5; stroke-width:0px;"/><path d="m38.3,73.88l-1.96-3.72c-6.72-4.37-13.4-8.11-20-10.89l8.49,10.17c4.58,1.32,9.14,2.83,13.47,4.44Zm-15.35-10.44l5.62,6.67-1.97-.62-6.89-7.7,3.24,1.65Z" style="fill:#e6e6e5; stroke-width:0px;"/><path d="m24.83,69.43l-8.49-10.17c-1.44-.61-2.88-1.17-4.31-1.68l10.33,11.16c.82.22,1.65.46,2.47.69Z" style="fill:#30a1d3; stroke-width:0px;"/><path d="m4.7,55.39c-1.28-.3-2.55-.57-3.82-.78l11.59,11.8c.87.17,1.75.35,2.63.54l-10.4-11.57Z" style="fill:#e71f19; stroke-width:0px;"/><polygon points="17.75 66.68 9.83 58.03 7.31 57.39 15.67 66.04 17.75 66.68" style="fill:#e71f19; stroke-width:0px;"/><polygon points="28.57 70.11 22.95 63.44 19.71 61.79 26.6 69.48 28.57 70.11" style="fill:#30a1d3; stroke-width:0px;"/><polygon points="28.43 42.4 29.04 53.24 28.43 42.4 28.43 42.4" style="fill:none; stroke-width:0px;"/><polygon points="27.23 36.24 27.54 51.88 27.23 36.24 27.23 36.24" style="fill:none; stroke-width:0px;"/><path d="m19.89,26.51l.94,16.28c1.71,2.17,3.4,4.43,5.04,6.74l-1.26-17.12c-1.46-2-3.02-3.92-4.73-5.89Zm2.08,16.02l-1.21-12.64,1.73,2.35.84,12.32-1.36-2.03Z" style="fill:#ccc; stroke-width:0px;"/><path d="m27.23,36.24l.3,15.63c3.05,4.39,5.93,8.91,8.56,13.33,0,0,3.05-2.38,3.03-2.43-4.28-11.95-8.08-20.5-11.89-26.54Zm1.8,16.99l-.61-10.84h0s-.07-1.3-.07-1.3l1.66,2.29.29,11.78-1.27-1.93Z" style="fill:#ccc; stroke-width:0px;"/><path d="m24.62,32.4l1.26,17.12c.56.78,1.11,1.57,1.66,2.36l-.3-15.63c-.84-1.34-1.71-2.6-2.61-3.84Z" style="fill:#30a1d3; stroke-width:0px;"/><polygon points="24.62 32.4 25.88 49.52 24.62 32.4 24.62 32.4" style="fill:#30a1d3; stroke-width:0px;"/><path d="m17.17,23.45l1.77,16.97c.64.78,1.27,1.56,1.9,2.36l-.94-16.28c-.87-1-1.77-2.01-2.73-3.06Z" style="fill:#e71f19; stroke-width:0px;"/><polygon points="19.89 26.51 20.84 42.79 19.89 26.51 19.89 26.51" style="fill:#e71f19; stroke-width:0px;"/><polygon points="20.77 29.89 21.97 42.53 23.34 44.56 22.5 32.24 20.77 29.89" style="fill:#e71f19; stroke-width:0px;"/><polygon points="28.36 41.09 29.04 53.24 30.31 55.17 30.02 43.39 28.36 41.09" style="fill:#30a1d3; stroke-width:0px;"/><polygon points="23.21 46.76 26.8 58.17 23.21 46.76 23.21 46.76" style="fill:none; stroke-width:0px;"/><polygon points="20.31 40.58 24.91 57.22 20.31 40.58 20.31 40.58" style="fill:none; stroke-width:0px;"/><path d="m10.21,32.63l5.42,17.12c2.33,1.75,4.66,3.6,6.96,5.51l-5.97-17.91c-2.03-1.65-4.13-3.18-6.41-4.72Zm6.5,16.46l-4.69-13.13,2.4,1.93,4.23,12.91-1.94-1.71Z" style="fill:#e6e6e5; stroke-width:0px;"/><path d="m20.31,40.58l4.6,16.64c4.29,3.68,8.46,7.54,12.32,11.39l1.77-4.55c-.03-.05-.07-.1-.1-.16-7.62-11.36-13.08-18.16-18.59-23.33Zm6.49,17.59l-3.59-11.41h0s-.43-1.37-.43-1.37l2.31,1.89,3.53,12.52-1.82-1.64Z" style="fill:#e6e6e5; stroke-width:0px;"/><path d="m16.61,37.35l5.97,17.91c.78.65,1.55,1.3,2.33,1.96l-4.6-16.64c-1.22-1.15-2.45-2.21-3.7-3.23Z" style="fill:#30a1d3; stroke-width:0px;"/><polygon points="16.61 37.35 22.58 55.26 16.61 37.35 16.61 37.35" style="fill:#30a1d3; stroke-width:0px;"/><path d="m6.6,30.27l6.45,17.58c.86.62,1.71,1.25,2.57,1.89l-5.42-17.12c-1.15-.78-2.35-1.56-3.6-2.36Z" style="fill:#e71f19; stroke-width:0px;"/><polygon points="10.21 32.63 15.63 49.75 10.21 32.63 10.21 32.63" style="fill:#e71f19; stroke-width:0px;"/><polygon points="12.02 35.96 16.71 49.09 18.64 50.8 14.42 37.89 12.02 35.96" style="fill:#e71f19; stroke-width:0px;"/><polygon points="22.78 45.4 26.8 58.17 28.62 59.81 25.09 47.29 22.78 45.4" style="fill:#30a1d3; stroke-width:0px;"/><polygon points="18.71 53.67 24.68 63.27 18.71 53.67 18.71 53.67" style="fill:none; stroke-width:0px;"/><polygon points="14.63 48.71 22.78 62.88 14.63 48.71 14.63 48.71" style="fill:none; stroke-width:0px;"/><path d="m3.76,43.98l8.99,14.39c2.48,1.02,4.99,2.12,7.49,3.29l-9.67-14.99c-2.2-1-4.43-1.87-6.81-2.7Zm9.78,13.51l-7.36-10.9,2.59,1.17,6.91,10.82-2.13-1.08Z" style="fill:#f2f2f2; stroke-width:0px;"/><path d="m14.63,48.71l8.15,14.17c4.69,2.29,9.32,4.78,13.67,7.34l.45-4.65s-.09-.08-.13-.12c-9.51-8.52-16-13.38-22.14-16.74Zm10.05,14.56l-5.97-9.6h0l-.72-1.15,2.5,1.15,6.19,10.64-2.01-1.05Z" style="fill:#f2f2f2; stroke-width:0px;"/><path d="m10.57,46.68l9.67,14.99c.85.4,1.69.8,2.53,1.21l-8.15-14.17c-1.36-.74-2.7-1.41-4.06-2.03Z" style="fill:#30a1d3; stroke-width:0px;"/><polygon points="10.57 46.68 20.24 61.67 10.57 46.68 10.57 46.68" style="fill:#30a1d3; stroke-width:0px;"/><path d="m0,42.73l10.02,14.56c.91.35,1.82.71,2.73,1.08l-8.99-14.39c-1.21-.42-2.45-.83-3.76-1.25Z" style="fill:#e71f19; stroke-width:0px;"/><polygon points="3.76 43.98 12.75 58.37 3.76 43.98 3.76 43.98" style="fill:#e71f19; stroke-width:0px;"/><polygon points="6.18 46.58 13.54 57.49 15.67 58.57 8.77 47.75 6.18 46.58" style="fill:#e71f19; stroke-width:0px;"/><polygon points="17.99 52.52 24.68 63.27 26.68 64.32 20.49 53.67 17.99 52.52" style="fill:#30a1d3; stroke-width:0px;"/><circle cx="43.42" cy="69.09" r="7.82" style="fill:#7f7f80; stroke-width:0px;"/><circle cx="42.46" cy="70.21" r="5.56" style="fill:#4d4d4d; stroke-width:0px;"/><rect x="41.52" y="65.25" width="1.9" height="9.91" transform="translate(-35.71 45.28) rotate(-41.15)" style="fill:#ccc; stroke-width:0px;"/><polygon points="40.9 30.84 37.09 31.11 28.61 10.57 28.75 0 40.9 30.84" style="fill:#2a2f89; stroke-width:0px;"/><polygon points="42.43 30.84 38.62 31.11 30.14 10.57 30.28 0 42.43 30.84" style="fill:#086bb0; stroke-width:0px;"/><path d="m42.39,32.13l-.19-.55,2.17-.75c-.04-.12-.09-.23-.15-.35l-1.98.85-.3-.69,1.92-.83c-.87-1.37-2.31-2.27-3.93-2.27-2.66,0-4.81,2.39-4.81,5.35s2.15,5.35,4.81,5.35,4.81-2.39,4.81-5.35c0-.53-.07-1.03-.2-1.51l-2.16.75Z" style="fill:#ccc; stroke-width:0px;"/><path d="m42.25,31.34l1.98-.85c-.11-.23-.23-.45-.36-.66l-1.92.83.3.69Z" style="fill:#71c7d4; stroke-width:0px;"/><path d="m42.39,32.13l2.16-.75c-.05-.19-.11-.37-.18-.55l-2.17.75.19.55Z" style="fill:#70c7d4; stroke-width:0px;"/><ellipse cx="39.48" cy="33.46" rx="3.86" ry="4.34" style="fill:#e6e6e5; stroke-width:0px;"/><path d="m71.27,24.03c6.14,6.94,11.35,6.86,16.21,4.11-4.83-1.71-8.3-3.99-9.67-7.15,1.54,1.79,3.38,3.21,5.55,4.1-2.4-1.61-3.68-3.1-5.26-5.75,2.78,3.37,5.25,4.8,8.32,6.93l-1.71.13c1.67.83,3.34,1.37,5.19,1.75-8.69,9.36-22.38,1.3-24.63-4.97,3.24,2.78,6.55,5.19,10.05,6.54-2.07-1.58-3.42-3.47-4.03-5.68Z" style="fill:#e2961c; stroke-width:0px;"/><path d="m312.68,30.08l-1.28,7.37h-10.33v15.2l1.16,1.8,1.1-1.8v-13.64h7.6v16.25l-4,6.33,6.67,10.1h-8.88l-2.21-3.22-2.03,3.22h-8.88l1.97-6.96h2.15l2.03-3.19-4.35-6.31v-17.78h-1.92l1.28-7.37h.64v-3.66h7.66v3.66h11.61Zm19.03,17.24v4.82c0,.23.12.35.35.35h6.09c.19,0,.29-.12.29-.35v-5.75c0-.23-.1-.35-.29-.35h-14.8l1.97-7.37h5.22v-4.58h-8.01l1.74-7.25h23.97l-2.15,7.25h-7.02v4.58h4.38c.77,0,1.43.28,1.99.84.56.56.83,1.23.83,2v13c0,.27-.04.56-.12.87-.08.31-.19.56-.34.75l-2.99,3.25c-.31.31-.71.46-1.21.46h-2.53v4.47h9.23l-2.21,7.37h-27.67c-1.4,0-2.58-.49-3.55-1.48-.97-.99-1.45-2.18-1.45-3.57V26.83h8.36v35.81c0,.46.21.86.64,1.19s.87.49,1.33.49h6.79v-4.47h-3.77c-.81,0-1.49-.28-2.03-.84-.54-.56-.81-1.23-.81-2v-9.69h7.78Z" style="fill:#30a1d3; stroke-width:0px;"/><path d="m387.84,25.85c.84,0,1.63.16,2.38.47s1.41.75,1.97,1.32c.56.56,1.01,1.22,1.35,1.98.33.75.5,1.57.5,2.45v16.99c0,.71-.25,1.32-.75,1.82l-5.46,5.46c-.5.5-1.09.75-1.75.75h-15.8l3.7-8.15h8.78c.54,0,.99-.18,1.35-.53.35-.35.53-.78.53-1.29v-11.29c0-.54-.18-.99-.53-1.35-.36-.35-.81-.53-1.35-.53h-27.34l4.08-8.09h28.34Zm-28.21,10.85h9.34v34.61h-9.34v-34.61Z" style="fill:#2a2f89; stroke-width:0px;"/><path d="m414.55,71.3v-37.37h-16.3l4.01-8.09h39.44l-4.08,8.09h-13.73v37.37h-9.34Z" style="fill:#2a2f89; stroke-width:0px;"/><path d="m166.44,71.3h-23.32c-1.76,0-3.23-.6-4.42-1.79s-1.79-2.66-1.79-4.42v-33.04c0-1.76.6-3.23,1.79-4.42s2.66-1.79,4.42-1.79h22.13c1.76,0,3.24.6,4.45,1.79,1.21,1.19,1.82,2.66,1.82,4.42v9.91h-9.4v-6.14c0-.54-.19-.99-.56-1.35-.38-.35-.81-.53-1.32-.53h-12.1c-.5,0-.94.18-1.32.53-.38.36-.56.81-.56,1.35v25.52c0,.54.19.99.56,1.35.38.36.81.53,1.32.53h22.32l-4.01,8.09Z" style="fill:#2a2f89; stroke-width:0px;"/><path d="m176.91,22.71h9.34v48.59h-9.34V22.71Zm14.3,16.74h10.97c.84,0,1.63.17,2.38.5.75.33,1.41.78,1.98,1.35.56.56,1.01,1.22,1.35,1.98.33.75.5,1.57.5,2.45v25.58h-9.4v-22.45c0-.33-.13-.63-.38-.88s-.54-.38-.88-.38h-10.6l4.08-8.15Z" style="fill:#2a2f89; stroke-width:0px;"/><path d="m232.4,63.22l-4.08,8.09h-8.46c-1.75,0-3.23-.6-4.42-1.79s-1.79-2.66-1.79-4.42v-19.37c0-1.76.6-3.24,1.79-4.45,1.19-1.21,2.67-1.82,4.42-1.82h26.9l-4.08,8.15h-17.74c-.54,0-1,.18-1.38.53-.38.36-.56.78-.56,1.29v11.91c0,.54.19.99.56,1.35.38.36.83.53,1.38.53h7.46Zm10.72-12.85v10.35c0,.84.25,1.46.75,1.88.5.42,1.17.63,2.01.63h2.45l-4.01,8.09h-4.33c-1.76,0-3.23-.6-4.42-1.79s-1.79-2.66-1.79-4.42v-14.73h9.34Z" style="fill:#2a2f89; stroke-width:0px;"/><path d="m280.87,63.15l-4.01,8.09h-9.59c-.84,0-1.63-.17-2.38-.5-.75-.33-1.41-.78-1.98-1.35-.56-.56-1.01-1.22-1.35-1.97-.33-.75-.5-1.55-.5-2.38v-17.49h-11.1l4.08-8.09h7.02v-8.65h9.34v8.65h13.29l-4.08,8.09h-9.22v14.36c0,.34.13.63.41.88.27.25.57.38.91.38h9.15Z" style="fill:#2a2f89; stroke-width:0px;"/></svg>