<?xml version="1.0" encoding="UTF-8"?><svg id="_图层_1" xmlns="http://www.w3.org/2000/svg" viewBox="0 0 462.13 427.22"><polygon points="403.35 126.3 388.74 127.34 356.23 48.61 356.76 8.08 403.35 126.3" style="fill:#086bb0; stroke-width:0px;"/><polygon points="397.49 126.3 382.88 127.34 350.37 48.61 350.91 8.08 397.49 126.3" style="fill:#2a2f89; stroke-width:0px;"/><path d="m120.06,283.41c-6.85,0-13.38,1.29-19.34,3.62-.35-.35-.71-.7-1.08-1.04,1.19-4.64,1.83-9.54,1.83-14.62,0-11.66-47.01-.3-65.47-13.12-10.53-7.31,4.28-43.5.66-43.29-9.69.55-19.14,40.18-19.25,38.14-.35-6.24-7.03-10.47-7.03,18.27,0,15.57,5.99,29.54,15.48,39.08-1.03,4.14-1.59,8.48-1.59,12.97,0,27.36,20.39,49.54,45.55,49.54,6.23,0,12.16-1.36,17.57-3.83,8.85,7.02,20.24,11.25,32.67,11.25,28.18,0,51.02-21.71,51.02-48.48s-22.84-48.48-51.02-48.48Z" style="fill:#e2961c; stroke-width:0px;"/><path d="m114.33,262.68c-8.59-6.28-19.53-10.05-31.44-10.05-27.59,0-49.96,20.16-49.96,45.04,0,16.33,9.64,30.63,24.07,38.52,7.98,17.9,25.23,30.3,45.23,30.3,27.59,0,49.96-23.59,49.96-52.69,0-24.69-16.11-45.41-37.85-51.12Z" style="fill:#e55827; stroke-width:0px;"/><path d="m251.81,423.42c-11.71,6.23-31.02,5.17-41.54-6-.76-.81-1.12-1.92-.94-3.02l5.23-33.36c.28-1.81,1.89-3.1,3.72-3l33.42,1.93c1.93.11,3.42,1.75,3.35,3.68l-1.38,36.78c-.05,1.25-.74,2.4-1.85,2.99Z" style="fill:#f5d83d; stroke-width:0px;"/><path d="m353.06,417.62c-9.98,8.74-29.02,12.12-41.82,3.66-.93-.61-1.53-1.62-1.61-2.72l-2.54-33.67c-.14-1.82,1.13-3.45,2.93-3.77l32.98-5.76c1.91-.33,3.73.92,4.1,2.82l7.07,36.12c.24,1.23-.17,2.51-1.11,3.34Z" style="fill:#f5d83d; stroke-width:0px;"/><path d="m457.83,236.71c6.98,116.27-57.86,157.86-185.63,158.32-135.56.49-196.9-44.98-196.9-161.36,0-104.18,84.46-188.64,188.64-188.64,63.55,0,119.39,32.62,154.7,81.67,1.9,2.64-7.2-.13-5.43,2.59.88,1.35,17.74,6.8,18.59,8.18,1.04,1.68-3,4.75-2.01,6.46,16.06,27.67,26.03,59.38,28.03,92.78Z" style="fill:#f5d83d; stroke-width:0px;"/><path d="m241.91,287.41l-11.08-103.25,33.79-48.54c70.16,29.87,128.82,34.42,173.25,7.66l14.24,23.74,10.02,113.93-12.13,34.55-30.86,14.77-129.49,6.07-1.43-6.51-30.48-.08-6.18-41.37-9.64-.96Z" style="fill:#b3b3b3; stroke-width:0px;"/><path d="m268.29,281.22l-9.79-88.93,30.13-43.29c67.58,25.56,103.34,27.8,150.83,6.15l11.34,20.04,8.7,98.37-9.76,30.86-25.85,12.66-113.67,5.27-8.44-38.77-33.49-2.37Z" style="fill:#e6e6e5; stroke-width:0px;"/><path d="m283.45,275.15l-9.1-77.93,26.9-36.4c51.53,19.03,97.58,23.39,134.9,4.35l11.44,18.34,5.96,87.09-9.1,26.31-21.76,10.29-102.07,4.35-8.33-34.42-28.85-1.98Z" style="fill:#2a2f89; stroke-width:0px;"/><rect x="342.86" y="201.83" width="11.87" height="32.7" style="fill:#30a1d3; stroke-width:0px;"/><rect x="243.92" y="201.95" width="11.16" height="66.05" transform="translate(-23.17 27.33) rotate(-5.99)" style="fill:#71c7d5; stroke-width:0px;"/><rect x="410.31" y="201.83" width="11.87" height="32.7" style="fill:#30a1d3; stroke-width:0px;"/><polygon points="381.82 278.71 381.82 254.25 410.31 264.67 381.82 278.71" style="fill:#30a1d3; stroke-width:0px;"/><polygon points="310.22 322.36 289.65 336.34 279.69 291.17 301.78 283.59 310.22 322.36" style="fill:#a5a5a5; stroke-width:0px;"/><polygon points="288.21 329.83 257.73 329.74 251.55 288.37 279.69 291.17 288.21 329.83" style="fill:#7f7f80; stroke-width:0px;"/><polygon points="279.69 291.17 241.91 287.41 268.29 281.22 301.78 283.59 279.69 291.17" style="fill:#999; stroke-width:0px;"/><polygon points="258.49 192.29 230.84 184.16 264.62 135.62 288.62 149 258.49 192.29" style="fill:#ccc; stroke-width:0px;"/><path d="m237.96,313.65l-45.89,1.05c1.62-23.68-1.68-47.97-9.09-73.15l39.75-10.12c14.42,24.35,18.32,52.15,15.23,82.22Z" style="fill:#b3b3b3; stroke-width:0px;"/><circle cx="196.58" cy="222.44" r="29.05" style="fill:#7f7f80; stroke-width:0px;"/><circle cx="193.03" cy="226.6" r="20.68" style="fill:#4d4d4d; stroke-width:0px;"/><rect x="189.51" y="208.18" width="7.04" height="36.83" transform="translate(-101.43 182.98) rotate(-41.15)" style="fill:#ccc; stroke-width:0px;"/><path d="m110.04,338.35l-50.86-54.94c-12.08-4.32-24.1-7.93-36.07-10.77l51.18,56.94c11.8,2.57,23.77,5.52,35.76,8.77Zm-61.67-52.73l39.01,42.57-10.28-3.14-41.11-42.58,12.37,3.15Z" style="fill:#e6e6e5; stroke-width:0px;"/><path d="m188.51,363.63l-9.63-18.33c-33.08-21.51-65.94-39.91-98.46-53.61l41.8,50.07c22.56,6.49,44.99,13.95,66.29,21.87Zm-75.55-51.38l27.68,32.84-9.7-3.08-33.92-37.88,15.94,8.12Z" style="fill:#e6e6e5; stroke-width:0px;"/><path d="m122.22,341.76l-41.8-50.07c-7.09-2.99-14.17-5.75-21.23-8.28l50.86,54.94c4.06,1.1,8.12,2.24,12.17,3.41Z" style="fill:#30a1d3; stroke-width:0px;"/><path d="m23.11,272.65c-6.29-1.49-12.57-2.78-18.82-3.83l57.05,58.1c4.29.84,8.61,1.72,12.96,2.67l-51.18-56.94Z" style="fill:#e71f19; stroke-width:0px;"/><polygon points="87.38 328.19 48.37 285.62 36 282.47 77.11 325.05 87.38 328.19" style="fill:#e71f19; stroke-width:0px;"/><polygon points="140.64 345.08 112.96 312.25 97.02 304.13 130.95 342.01 140.64 345.08" style="fill:#30a1d3; stroke-width:0px;"/><polygon points="139.93 208.67 142.92 262.03 139.93 208.67 139.93 208.67" style="fill:none; stroke-width:0px;"/><polygon points="134.05 178.39 135.54 255.34 134.05 178.39 134.05 178.39" style="fill:none; stroke-width:0px;"/><path d="m97.92,130.48l4.64,80.11c8.42,10.7,16.72,21.8,24.82,33.15l-6.19-84.24c-7.19-9.86-14.85-19.29-23.28-29.02Zm10.24,78.85l-5.94-62.19,8.51,11.56,4.13,60.62-6.7-9.99Z" style="fill:#ccc; stroke-width:0px;"/><path d="m134.05,178.39l1.5,76.95c15,21.63,29.21,43.88,42.11,65.62,0,0,15.02-11.69,14.93-11.96-21.08-58.83-39.77-100.9-58.54-130.61Zm8.87,83.63l-2.99-53.35h0s-.36-6.41-.36-6.41l8.17,11.28,1.42,57.99-6.25-9.51Z" style="fill:#ccc; stroke-width:0px;"/><path d="m121.2,159.5l6.19,84.24c2.74,3.84,5.46,7.71,8.16,11.6l-1.5-76.95c-4.15-6.57-8.41-12.82-12.85-18.89Z" style="fill:#30a1d3; stroke-width:0px;"/><polygon points="121.2 159.5 127.39 243.74 121.2 159.5 121.2 159.5" style="fill:#30a1d3; stroke-width:0px;"/><path d="m84.5,115.41l8.72,83.55c3.13,3.82,6.25,7.69,9.35,11.63l-4.64-80.11c-4.26-4.92-8.72-9.91-13.42-15.07Z" style="fill:#e71f19; stroke-width:0px;"/><polygon points="97.92 130.48 102.56 210.59 97.92 130.48 97.92 130.48" style="fill:#e71f19; stroke-width:0px;"/><polygon points="102.22 147.14 108.16 209.33 114.86 219.32 110.73 158.7 102.22 147.14" style="fill:#e71f19; stroke-width:0px;"/><polygon points="139.57 202.27 142.92 262.03 149.16 271.53 147.74 213.55 139.57 202.27" style="fill:#30a1d3; stroke-width:0px;"/><polygon points="114.24 230.18 131.91 286.32 114.24 230.18 114.24 230.18" style="fill:none; stroke-width:0px;"/><polygon points="99.98 199.73 122.6 281.65 99.98 199.73 99.98 199.73" style="fill:none; stroke-width:0px;"/><path d="m50.23,160.62l26.68,84.24c11.46,8.62,22.92,17.71,34.24,27.12l-29.38-88.15c-9.99-8.13-20.34-15.65-31.54-23.21Zm32,81l-23.08-64.62,11.79,9.51,20.82,63.54-9.53-8.44Z" style="fill:#e6e6e5; stroke-width:0px;"/><path d="m99.98,199.73l22.63,81.92c21.13,18.1,41.62,37.13,60.66,56.06l8.73-22.38c-.16-.25-.33-.52-.49-.77-37.5-55.89-64.36-89.36-91.52-114.84Zm31.93,86.59l-17.67-56.14h0s-2.12-6.74-2.12-6.74l11.37,9.32,17.35,61.64-8.94-8.07Z" style="fill:#e6e6e5; stroke-width:0px;"/><path d="m81.78,183.83l29.38,88.15c3.83,3.19,7.65,6.41,11.45,9.67l-22.63-81.92c-6.01-5.64-12.04-10.88-18.2-15.9Z" style="fill:#30a1d3; stroke-width:0px;"/><polygon points="81.78 183.83 111.16 271.98 81.78 183.83 81.78 183.83" style="fill:#30a1d3; stroke-width:0px;"/><path d="m32.51,149l31.75,86.55c4.22,3.04,8.44,6.13,12.66,9.3l-26.68-84.24c-5.67-3.83-11.55-7.67-17.73-11.61Z" style="fill:#e71f19; stroke-width:0px;"/><polygon points="50.23 160.62 76.92 244.86 50.23 160.62 50.23 160.62" style="fill:#e71f19; stroke-width:0px;"/><polygon points="59.16 177 82.24 241.62 91.77 250.05 70.95 186.51 59.16 177" style="fill:#e71f19; stroke-width:0px;"/><polygon points="112.12 223.44 131.91 286.32 140.85 294.4 123.49 232.76 112.12 223.44" style="fill:#30a1d3; stroke-width:0px;"/><polygon points="92.08 264.17 121.47 311.41 92.08 264.17 92.08 264.17" style="fill:none; stroke-width:0px;"/><polygon points="72 239.75 112.11 309.5 72 239.75 72 239.75" style="fill:none; stroke-width:0px;"/><path d="m18.5,216.46l44.26,70.84c12.23,5,24.57,10.44,36.88,16.22l-47.6-73.76c-10.82-4.93-21.79-9.2-33.54-13.3Zm48.16,66.49l-36.25-53.67,12.74,5.74,33.99,53.26-10.48-5.33Z" style="fill:#f2f2f2; stroke-width:0px;"/><path d="m72,239.75l40.11,69.75c23.09,11.26,45.86,23.55,67.31,36.11l2.2-22.88c-.2-.19-.42-.39-.62-.58-46.83-41.92-78.76-65.88-108.99-82.4Zm49.47,71.66l-29.4-47.24h0l-3.53-5.67,12.33,5.67,30.47,52.39-9.87-5.15Z" style="fill:#f2f2f2; stroke-width:0px;"/><path d="m52.04,229.77l47.6,73.76c4.17,1.95,8.32,3.95,12.48,5.97l-40.11-69.75c-6.69-3.65-13.3-6.95-19.97-9.98Z" style="fill:#30a1d3; stroke-width:0px;"/><polygon points="52.04 229.77 99.64 303.52 52.04 229.77 52.04 229.77" style="fill:#30a1d3; stroke-width:0px;"/><path d="m0,210.31l49.3,71.67c4.47,1.72,8.95,3.48,13.46,5.33l-44.26-70.84c-5.94-2.07-12.08-4.1-18.5-6.15Z" style="fill:#e71f19; stroke-width:0px;"/><polygon points="18.5 216.46 62.76 287.31 18.5 216.46 18.5 216.46" style="fill:#e71f19; stroke-width:0px;"/><polygon points="30.41 229.28 66.66 282.95 77.14 288.28 43.15 235.02 30.41 229.28" style="fill:#e71f19; stroke-width:0px;"/><polygon points="88.55 258.5 121.47 311.41 131.34 316.56 100.88 264.17 88.55 258.5" style="fill:#30a1d3; stroke-width:0px;"/><circle cx="213.71" cy="340.07" r="38.48" style="fill:#7f7f80; stroke-width:0px;"/><circle cx="209.01" cy="345.57" r="27.39" style="fill:#4d4d4d; stroke-width:0px;"/><rect x="204.34" y="321.18" width="9.33" height="48.78" transform="translate(-175.76 222.88) rotate(-41.15)" style="fill:#ccc; stroke-width:0px;"/><polygon points="201.32 151.77 182.57 153.11 140.84 52.03 141.52 0 201.32 151.77" style="fill:#2a2f89; stroke-width:0px;"/><polygon points="208.84 151.77 190.09 153.11 148.35 52.03 149.03 0 208.84 151.77" style="fill:#086bb0; stroke-width:0px;"/><path d="m208.66,158.15l-.93-2.68,10.69-3.7c-.22-.58-.46-1.15-.72-1.71l-9.76,4.2-1.46-3.39,9.46-4.07c-4.28-6.76-11.35-11.18-19.36-11.18-13.07,0-23.67,11.78-23.67,26.31s10.6,26.31,23.67,26.31,23.67-11.78,23.67-26.31c0-2.59-.34-5.09-.97-7.45l-10.63,3.67Z" style="fill:#ccc; stroke-width:0px;"/><path d="m207.94,154.25l9.76-4.2c-.52-1.14-1.11-2.23-1.76-3.26l-9.46,4.07,1.46,3.39Z" style="fill:#71c7d4; stroke-width:0px;"/><path d="m208.66,158.15l10.63-3.67c-.25-.92-.53-1.83-.86-2.71l-10.69,3.7.93,2.68Z" style="fill:#70c7d4; stroke-width:0px;"/><ellipse cx="194.3" cy="164.71" rx="18.99" ry="21.37" style="fill:#e6e6e5; stroke-width:0px;"/><path d="m350.8,118.29c30.24,34.18,55.88,33.78,79.78,20.21-23.77-8.44-40.87-19.66-47.6-35.19,7.57,8.8,16.66,15.78,27.3,20.18-11.81-7.9-18.12-15.24-25.91-28.3,13.69,16.61,25.85,23.63,40.94,34.1l-8.4.62c8.23,4.06,16.45,6.77,25.55,8.6-42.79,46.08-110.18,6.41-121.25-24.45,15.96,13.68,32.23,25.56,49.45,32.18-10.2-7.77-16.84-17.07-19.85-27.94Z" style="fill:#e2961c; stroke-width:0px;"/></svg>